<svg width="79" height="79" viewBox="0 0 79 79" fill="none" xmlns="http://www.w3.org/2000/svg">
<g clip-path="url(#clip0_120_3)">
<path d="M39.5 79C61.3152 79 79 61.3152 79 39.5C79 17.6848 61.3152 0 39.5 0C17.6848 0 0 17.6848 0 39.5C0 61.3152 17.6848 79 39.5 79Z" fill="#92BCBF"/>
<g clip-path="url(#clip1_120_3)">
<path d="M72.6617 32.2896L53.2124 18.1678C52.8518 17.9155 52.4277 17.7692 51.9881 17.7453C51.5486 17.7214 51.1111 17.8209 50.7252 18.0325C50.6183 18.0899 50.5151 18.1542 50.4164 18.2248L40.6622 24.29C40.3096 24.5027 39.9056 24.6151 39.4937 24.6151C39.0818 24.6151 38.6778 24.5027 38.3252 24.29L28.6037 18.2385C28.4863 18.1524 28.3618 18.0765 28.2315 18.0114C28.0954 17.9335 27.9486 17.8758 27.7958 17.8403C27.4578 17.7381 27.1009 17.7149 26.7525 17.7725C26.4042 17.83 26.0737 17.9667 25.7866 18.172L6.33841 32.2896C5.87191 32.6488 5.55175 33.165 5.4374 33.7423C5.32304 34.3195 5.42225 34.9186 5.71661 35.4283L13.6964 50.1597C13.886 50.5681 14.1866 50.915 14.5641 51.1608C14.9415 51.4067 15.3805 51.5416 15.831 51.5502C16.2815 51.5588 16.7254 51.4407 17.1119 51.2094C17.4985 50.9781 17.8122 50.643 18.0173 50.2421L19.209 47.6897L29.419 57.1261C32.1515 59.68 35.7534 61.1009 39.4953 61.1009C43.2371 61.1009 46.8391 59.68 49.5715 57.1261L59.7889 47.6833L60.9839 50.2411C61.1886 50.6422 61.5022 50.9778 61.8888 51.2093C62.2754 51.4409 62.7194 51.5591 63.1701 51.5505C63.6208 51.5419 64.06 51.4069 64.4374 51.1607C64.8149 50.9146 65.1154 50.5673 65.3047 50.1587L73.2792 35.4262C73.5742 34.9171 73.6742 34.3184 73.5608 33.7412C73.4475 33.164 73.1283 32.6475 72.6627 32.2875L72.6617 32.2896ZM48.5172 55.9893C46.2617 58.0886 43.3457 59.339 40.2688 59.5264V54.7215C40.3823 54.6634 40.4887 54.5925 40.5861 54.5102L45.6821 50.2073C46.0341 49.911 46.3119 49.5366 46.4934 49.1141C46.6749 48.6915 46.7551 48.2324 46.7276 47.7734C46.7001 47.3144 46.5656 46.8682 46.3349 46.4703C46.1041 46.0724 45.7836 45.7339 45.3987 45.4817L43.6739 44.3449C43.418 44.1773 43.1213 44.0823 42.8155 44.0698C42.5097 44.0573 42.2063 44.1279 41.9375 44.2741L40.3101 45.1658C40.0616 45.3012 39.7831 45.3721 39.5 45.3721C39.217 45.3721 38.9385 45.3012 38.69 45.1658L37.0625 44.2741C36.794 44.127 36.4905 44.0559 36.1845 44.0684C35.8785 44.0809 35.5818 44.1765 35.3261 44.3449L33.6024 45.4817C33.2176 45.7337 32.897 46.0722 32.6663 46.47C32.4355 46.8678 32.301 47.3139 32.2735 47.7729C32.246 48.2318 32.3262 48.6908 32.5077 49.1133C32.6892 49.5358 32.9671 49.91 33.319 50.2062L38.4151 54.5102C38.5092 54.5888 38.6117 54.6568 38.7207 54.7131V59.5253C35.6437 59.3379 32.7278 58.0875 30.4723 55.9882L19.8975 46.2159L31.3225 21.7598L37.5046 25.6042L37.5151 25.6106L37.5257 25.6169C38.1191 25.9736 38.7985 26.162 39.491 26.162C40.1836 26.162 40.863 25.9736 41.4564 25.6169L41.4669 25.6106L41.4775 25.6042L47.6712 21.7534L59.092 46.2117L48.514 55.9893H48.5172Z" fill="#223656"/>
</g>
</g>
<defs>
<clipPath id="clip0_120_3">
<rect width="79" height="79" fill="white"/>
</clipPath>
<clipPath id="clip1_120_3">
<rect width="68.1992" height="43.3574" fill="white" transform="translate(5.40039 17.7441)"/>
</clipPath>
</defs>
</svg>
