<svg width="250" height="250" viewBox="0 0 250 250" fill="none" xmlns="http://www.w3.org/2000/svg">
<rect width="250" height="250" rx="125" fill="#A5443B"/>
<path d="M96.9007 173.14C96.9007 173.14 106.738 143.636 106.772 143.553C106.783 143.523 106.797 143.495 106.809 143.466C106.849 143.372 106.893 143.278 106.939 143.187C106.955 143.154 106.971 143.122 106.988 143.09C107.045 142.982 107.108 142.878 107.174 142.775C107.193 142.745 107.213 142.715 107.233 142.685C107.305 142.579 107.381 142.475 107.461 142.375C107.476 142.357 107.491 142.34 107.506 142.322C107.597 142.212 107.691 142.106 107.792 142.004L178.575 71.2212C180.376 69.421 183.294 69.421 185.094 71.2212L204.65 90.7772C206.45 92.5774 206.45 95.4958 204.65 97.2958L191.613 110.333L133.867 168.079C133.767 168.179 133.662 168.272 133.553 168.362C133.534 168.379 133.514 168.396 133.494 168.412C133.396 168.491 133.294 168.566 133.189 168.636C133.157 168.658 133.125 168.679 133.093 168.7C132.992 168.764 132.889 168.826 132.784 168.882C132.749 168.901 132.714 168.917 132.68 168.935C132.591 168.979 132.501 169.021 132.41 169.06C132.379 169.073 132.349 169.088 132.317 169.1C132.234 169.134 132.15 169.164 132.065 169.193L102.732 178.97C101.086 179.519 99.2572 179.099 98.0145 177.857C96.7797 176.622 96.3487 174.796 96.9007 173.14ZM130.608 158.301L181.835 107.074L168.797 94.0365L117.57 145.264L130.608 158.301ZM181.835 80.9991L175.316 87.5177L188.353 100.555L194.872 94.0365L181.835 80.9991Z" fill="white"/>
<path d="M101.828 170.91L52.5 170.91C49.9542 170.91 47.8906 172.973 47.8906 175.519C47.8906 178.065 49.9542 180.129 52.5 180.129L100.906 179.391C104.594 178.469 104.594 178.469 106.438 175.519C106.438 172.973 104.374 170.91 101.828 170.91Z" fill="white"/>
</svg>
