<svg width="79" height="79" viewBox="0 0 79 79" fill="none" xmlns="http://www.w3.org/2000/svg">
<g clip-path="url(#clip0_547_638)">
<path d="M39.5 79C61.3152 79 79 61.3152 79 39.5C79 17.6848 61.3152 0 39.5 0C17.6848 0 0 17.6848 0 39.5C0 61.3152 17.6848 79 39.5 79Z" fill="#436077"/>
</g>
<g clip-path="url(#clip1_547_638)">
<path d="M70.605 32.7684L52.213 19.4014C51.872 19.1627 51.471 19.0241 51.0553 19.0015C50.6396 18.9789 50.2259 19.0731 49.861 19.2734C49.7599 19.3277 49.6623 19.3885 49.569 19.4554L40.345 25.1964C40.0116 25.3977 39.6295 25.5041 39.24 25.5041C38.8505 25.5041 38.4684 25.3977 38.135 25.1964L28.942 19.4684C28.831 19.3869 28.7132 19.315 28.59 19.2534C28.4613 19.1796 28.3225 19.1251 28.178 19.0914C27.8584 18.9947 27.5209 18.9728 27.1915 19.0272C26.862 19.0817 26.5495 19.211 26.278 19.4054L7.88701 32.7684C7.44587 33.1085 7.14312 33.5971 7.03498 34.1435C6.92684 34.6899 7.02066 35.2569 7.29901 35.7394L14.845 49.6834C15.0243 50.0699 15.3086 50.3983 15.6655 50.631C16.0225 50.8637 16.4376 50.9915 16.8636 50.9996C17.2896 51.0077 17.7094 50.8959 18.0749 50.677C18.4405 50.4581 18.7371 50.1408 18.931 49.7614L20.058 47.3454L29.713 56.2774C32.2969 58.6948 35.7031 60.0398 39.2415 60.0398C42.78 60.0398 46.1861 58.6948 48.77 56.2774L58.432 47.3394L59.562 49.7604C59.7556 50.1401 60.0522 50.4577 60.4178 50.6769C60.7834 50.8961 61.2032 51.008 61.6294 50.9999C62.0556 50.9917 62.4709 50.8639 62.8278 50.6309C63.1848 50.3979 63.469 50.0692 63.648 49.6824L71.189 35.7374C71.4679 35.2555 71.5625 34.6888 71.4553 34.1424C71.3481 33.5961 71.0463 33.1072 70.606 32.7664L70.605 32.7684ZM47.773 55.2014C45.6401 57.1885 42.8827 58.3721 39.973 58.5494V54.0014C40.0803 53.9463 40.1809 53.8792 40.273 53.8014L45.092 49.7284C45.4249 49.4479 45.6876 49.0936 45.8592 48.6936C46.0309 48.2937 46.1067 47.8591 46.0807 47.4246C46.0547 46.9902 45.9275 46.5678 45.7093 46.1912C45.4911 45.8145 45.188 45.4941 44.824 45.2554L43.193 44.1794C42.951 44.0208 42.6704 43.9308 42.3813 43.919C42.0921 43.9072 41.8052 43.974 41.551 44.1124L40.012 44.9564C39.777 45.0845 39.5137 45.1517 39.246 45.1517C38.9784 45.1517 38.715 45.0845 38.48 44.9564L36.941 44.1124C36.6871 43.9732 36.4 43.9058 36.1107 43.9176C35.8214 43.9295 35.5407 44.02 35.299 44.1794L33.669 45.2554C33.3051 45.494 33.0019 45.8143 32.7837 46.1909C32.5655 46.5674 32.4384 46.9897 32.4123 47.4241C32.3863 47.8585 32.4621 48.293 32.6338 48.6929C32.8054 49.0928 33.0682 49.447 33.401 49.7274L38.22 53.8014C38.3091 53.8757 38.406 53.9401 38.509 53.9934V58.5484C35.5993 58.3711 32.8419 57.1875 30.709 55.2004L20.709 45.9504L31.513 22.8014L37.359 26.4404L37.369 26.4464L37.379 26.4524C37.9401 26.79 38.5826 26.9684 39.2375 26.9684C39.8924 26.9684 40.5349 26.79 41.096 26.4524L41.106 26.4464L41.116 26.4404L46.973 22.7954L57.773 45.9464L47.77 55.2014H47.773Z" fill="white"/>
</g>
<defs>
<clipPath id="clip0_547_638">
<rect width="79" height="79" fill="white"/>
</clipPath>
<clipPath id="clip1_547_638">
<rect width="64.492" height="41.04" fill="white" transform="translate(7 19)"/>
</clipPath>
</defs>
</svg>
